<svg xmlns="http://www.w3.org/2000/svg" xmlns:xlink="http://www.w3.org/1999/xlink" width="129" height="76" x="0" y="0" enable-background="new -9.209 -19.954 129 76" overflow="visible" version="1.1" viewBox="-9.209 -19.954 129 76" xml:space="preserve"><linearGradient id="SVGID_1_" x1="95.043" x2="58.703" y1="36.654" y2="5.065" gradientTransform="matrix(-1 0 0 -1 176.8936 42.418)" gradientUnits="userSpaceOnUse"><stop offset=".074" style="stop-color:#f15a24"/><stop offset=".199" style="stop-color:#f26523"/><stop offset=".421" style="stop-color:#f58320"/><stop offset=".521" style="stop-color:#f7931e"/></linearGradient><path fill="url(#SVGID_1_)" d="M113.838,42.358H99.139L86.808,0.061h13.292L113.838,42.358z"/><path d="M0,0.121h14.699l5.94,20.158L27.419,0h12.12l6.779,20.279l5.94-20.158h14.459L52.978,42.418h-12.24l-7.379-20.879	l-7.38,20.879h-12.24L0,0.121z"/><linearGradient id="SVGID_2_" x1="-3.464" x2="31.2" y1="3.526" y2="38.191" gradientUnits="userSpaceOnUse"><stop offset=".485" style="stop-color:#29abe2"/><stop offset=".552" style="stop-color:#28a0d9"/><stop offset=".671" style="stop-color:#2582bf"/><stop offset=".829" style="stop-color:#215197"/><stop offset="1" style="stop-color:#1b1464"/></linearGradient><path fill="url(#SVGID_2_)" d="M0,0.062h14.699l12.332,42.297H13.739L0,0.062z"/><path fill="#09C" d="M27.292,42.358H14L26.332,0.062h14.699L27.292,42.358z"/><linearGradient id="SVGID_3_" x1="22.924" x2="57.587" y1="3.527" y2="38.191" gradientUnits="userSpaceOnUse"><stop offset=".485" style="stop-color:#29abe2"/><stop offset=".552" style="stop-color:#28a0d9"/><stop offset=".671" style="stop-color:#2582bf"/><stop offset=".829" style="stop-color:#215197"/><stop offset="1" style="stop-color:#1b1464"/></linearGradient><path fill="url(#SVGID_3_)" d="M26.388,0.062h14.699l12.332,42.297H40.127L26.388,0.062z"/><path fill="#09C" d="M53.195,42.358H39.903L52.235,0.062h14.699L53.195,42.358z"/><linearGradient id="SVGID_4_" x1="120.946" x2="84.606" y1="36.654" y2="5.065" gradientTransform="matrix(-1 0 0 -1 176.8936 42.418)" gradientUnits="userSpaceOnUse"><stop offset=".074" style="stop-color:#f15a24"/><stop offset=".199" style="stop-color:#f26523"/><stop offset=".421" style="stop-color:#f58320"/><stop offset=".521" style="stop-color:#f7931e"/></linearGradient><path fill="url(#SVGID_4_)" d="M87.936,42.358H73.236L60.905,0.061h13.292L87.936,42.358z"/><linearGradient id="SVGID_5_" x1="70.594" x2="50.684" y1="6.123" y2="35.64" gradientTransform="matrix(1 0 0 -1 0 42.418)" gradientUnits="userSpaceOnUse"><stop offset="0" style="stop-color:#f7931e"/><stop offset=".061" style="stop-color:#f7931e"/><stop offset=".712" style="stop-color:#f7931e"/></linearGradient><path fill="url(#SVGID_5_)" d="M60.644,0.061h13.292L61.604,42.358H46.904L60.644,0.061z"/><linearGradient id="SVGID_6_" x1="96.982" x2="77.073" y1="6.124" y2="35.641" gradientTransform="matrix(1 0 0 -1 0 42.418)" gradientUnits="userSpaceOnUse"><stop offset="0" style="stop-color:#f7931e"/><stop offset=".061" style="stop-color:#f7931e"/><stop offset=".712" style="stop-color:#f7931e"/></linearGradient><path fill="url(#SVGID_6_)" d="M87.031,0.061h13.292L87.991,42.358H73.292L87.031,0.061z"/></svg>